<?xml version="1.0" encoding="utf-8"?>
<svg width="455" height="455" viewBox="0 0 455 455" fill="none" xmlns="http://www.w3.org/2000/svg">
  <defs>
    <clipPath id="clip_path_1">
      <rect width="455" height="455" rx="70" />
    </clipPath>
  </defs>
  <g clip-path="url(#clip_path_1)">
    <rect width="455" height="455" fill="#1BD741" fill-rule="evenodd" />
    <g id="Group" transform="translate(68.128 23.456)">
      <g id="Group">
        <path id="Shape" d="M0 319.089C0 319.089 22.323 239.805 22.323 239.805C7.968 215.418 0.409996 187.671 0.409996 159.167C0.409996 71.402 71.812 0 159.577 0C247.342 0 318.743 71.402 318.743 159.167C318.743 246.932 247.342 318.334 159.577 318.334C132.23 318.334 105.452 311.334 81.763 298.042C81.763 298.042 0 319.089 0 319.089L0 319.089ZM85.943 269.085C85.943 269.085 90.815 272.06 90.815 272.06C111.469 284.669 135.247 291.334 159.577 291.334C232.454 291.334 291.743 232.044 291.743 159.167C291.743 86.29 232.454 27 159.577 27C86.7 27 27.41 86.29 27.41 159.167C27.41 184.56 34.627 209.219 48.279 230.478C48.279 230.478 51.56 235.587 51.56 235.587L38.705 281.245L85.943 269.085L85.943 269.085Z" fill="#FFFFFF" />
        <path id="Path" d="M35.761 0.581711C35.761 0.581711 25.433 0.0187073 25.433 0.0187073C22.189 -0.158295 19.007 0.925705 16.555 3.05571C11.548 7.40372 3.54202 15.8097 1.08302 26.7637C-2.58398 43.0967 3.08302 63.0967 17.75 83.0967C32.417 103.097 59.75 135.097 108.083 148.764C123.658 153.168 135.91 150.199 145.363 144.152C152.85 139.363 158.011 131.676 159.871 122.986C159.871 122.986 161.52 115.284 161.52 115.284C162.044 112.836 160.801 110.352 158.527 109.304C158.527 109.304 123.622 93.2147 123.622 93.2147C121.356 92.1707 118.669 92.8307 117.145 94.8057C117.145 94.8057 103.442 112.57 103.442 112.57C102.407 113.912 100.635 114.444 99.035 113.882C89.651 110.584 58.217 97.4187 40.969 64.1947C40.221 62.7537 40.407 61.0047 41.468 59.7757C41.468 59.7757 54.564 44.6257 54.564 44.6257C55.902 43.0787 56.24 40.9037 55.436 39.0237C55.436 39.0237 40.39 3.82268 40.39 3.82268C39.589 1.94872 37.794 0.692719 35.761 0.581711C35.761 0.581711 35.761 0.581711 35.761 0.581711Z" fill="#FFFFFF" transform="translate(79.104 84.504)" />
      </g>
    </g>
    <path d="M4.04688 62L4.04688 15.4531L22.6875 15.4531Q30.3906 15.4531 34.2656 18.8125Q38.1406 22.1562 38.1406 27.3906Q38.1406 31.5 35.75 34.0312Q33.3594 36.5625 29.7344 37.3906L29.7344 37.8438Q32.3906 37.9531 34.7188 39.3438Q37.0469 40.7344 38.5 43.2188Q39.9531 45.6875 39.9531 49.1406Q39.9531 52.8438 38.125 55.75Q36.2969 58.6562 32.7188 60.3281Q29.1562 62 23.9375 62L4.04688 62ZM13.8906 53.9531L21.9062 53.9531Q26.0469 53.9531 27.9219 52.3594Q29.7969 50.7656 29.7969 48.1562Q29.7969 45.2656 27.7344 43.4375Q25.6875 41.5938 22.1406 41.5938L13.8906 41.5938L13.8906 53.9531ZM13.8906 34.9375L21.1875 34.9375Q24.2031 34.9375 26.2031 33.3594Q28.2031 31.7656 28.2031 29.0156Q28.2031 26.5 26.4219 24.9531Q24.6406 23.4062 21.3594 23.4062L13.8906 23.4062L13.8906 34.9375ZM55.8423 15.4531L55.8423 62L46.1548 62L46.1548 15.4531L55.8423 15.4531ZM85.9545 47.1406L85.9545 27.0938L95.642 27.0938L95.642 62L86.3452 62L86.3452 55.6562L85.9702 55.6562Q84.7983 58.7344 82.0483 60.5938Q79.3139 62.4531 75.392 62.4531Q70.1108 62.4531 66.8452 58.9531Q63.5952 55.4375 63.5639 49.3125L63.5639 27.0938L73.2514 27.0938L73.2514 47.5938Q73.267 50.6875 74.9077 52.4844Q76.5483 54.2656 79.2983 54.2656Q81.9077 54.2656 83.9389 52.4531Q85.9702 50.6406 85.9545 47.1406ZM103.359 62L103.359 27.0938L112.75 27.0938L112.75 33.1875L113.109 33.1875Q114.062 29.9375 116.312 28.2656Q118.562 26.5938 121.5 26.5938Q123.109 26.5938 124.547 26.9375L124.547 35.5156Q123.859 35.2969 122.656 35.1562Q121.453 35 120.453 35Q117.25 35 115.141 37.0156Q113.047 39.0156 113.047 42.25L113.047 62L103.359 62ZM144.547 62L144.547 15.4531L162.906 15.4531Q168.203 15.4531 171.922 17.4688Q175.656 19.4844 177.625 23.0469Q179.594 26.5938 179.594 31.2344Q179.594 35.8594 177.594 39.4062Q175.594 42.9375 171.797 44.9219Q168.016 46.9062 162.656 46.9062L154.391 46.9062L154.391 62L144.547 62ZM154.391 39.0156L161.062 39.0156Q165.297 39.0156 167.375 36.8594Q169.453 34.6875 169.453 31.2344Q169.453 27.75 167.375 25.625Q165.297 23.5 161.016 23.5L154.391 23.5L154.391 39.0156ZM195.501 15.4531L195.501 62L185.814 62L185.814 15.4531L195.501 15.4531ZM225.614 47.1406L225.614 27.0938L235.301 27.0938L235.301 62L226.004 62L226.004 55.6562L225.629 55.6562Q224.457 58.7344 221.707 60.5938Q218.973 62.4531 215.051 62.4531Q209.77 62.4531 206.504 58.9531Q203.254 55.4375 203.223 49.3125L203.223 27.0938L212.911 27.0938L212.911 47.5938Q212.926 50.6875 214.567 52.4844Q216.207 54.2656 218.957 54.2656Q221.567 54.2656 223.598 52.4531Q225.629 50.6406 225.614 47.1406ZM258.753 75.8125Q251.706 75.8125 247.675 73Q243.659 70.2031 242.8 66.0938L251.753 64.8906Q252.347 66.4844 254.05 67.6719Q255.768 68.8594 258.972 68.8594Q262.143 68.8594 264.19 67.3281Q266.253 65.7969 266.253 62.2031L266.253 55.8125L265.847 55.8125Q264.893 57.9844 262.472 59.75Q260.065 61.5 255.893 61.5Q251.956 61.5 248.737 59.6562Q245.518 57.8125 243.612 54.0469Q241.722 50.2656 241.722 44.4844Q241.722 38.5156 243.659 34.5625Q245.612 30.6094 248.831 28.625Q252.05 26.6406 255.862 26.6406Q258.8 26.6406 260.768 27.625Q262.753 28.6094 263.972 30.0625Q265.206 31.5156 265.847 32.9531L266.206 32.9531L266.206 27.0938L275.815 27.0938L275.815 62.3438Q275.815 66.7969 273.612 69.7969Q271.425 72.7969 267.581 74.2969Q263.753 75.8125 258.753 75.8125ZM258.956 54.2344Q262.456 54.2344 264.378 51.6406Q266.3 49.0469 266.3 44.4375Q266.3 39.8438 264.378 37.0938Q262.472 34.3438 258.956 34.3438Q255.362 34.3438 253.487 37.1719Q251.612 39.9844 251.612 44.4375Q251.612 48.9531 253.503 51.5938Q255.393 54.2344 258.956 54.2344ZM283.541 62L283.541 27.0938L293.229 27.0938L293.229 62L283.541 62ZM288.416 22.5938Q286.276 22.5938 284.729 21.1562Q283.182 19.7031 283.182 17.6875Q283.182 15.6562 284.729 14.2344Q286.276 12.7969 288.416 12.7969Q290.572 12.7969 292.119 14.2344Q293.666 15.6562 293.666 17.6875Q293.666 19.7031 292.119 21.1562Q290.572 22.5938 288.416 22.5938ZM310.638 41.8125L310.638 62L300.95 62L300.95 27.0938L310.185 27.0938L310.185 33.25L310.591 33.25Q311.778 30.2031 314.482 28.4219Q317.2 26.6406 321.091 26.6406Q326.544 26.6406 329.841 30.1562Q333.138 33.6562 333.138 39.7656L333.138 62L323.45 62L323.45 41.5Q323.482 38.2969 321.81 36.5Q320.153 34.6875 317.247 34.6875Q314.325 34.6875 312.482 36.5625Q310.653 38.4375 310.638 41.8125Z" fill="#FFFFFF" transform="translate(59 353.545)" />
  </g>
</svg>